<?xml version="1.0" standalone="no"?>
<!DOCTYPE svg PUBLIC "-//W3C//DTD SVG 20010904//EN"
 "http://www.w3.org/TR/2001/REC-SVG-20010904/DTD/svg10.dtd">
<svg version="1.0" xmlns="http://www.w3.org/2000/svg"
 width="1290.000000pt" height="1121.000000pt" viewBox="0 0 1290.000000 1121.000000"
 preserveAspectRatio="xMidYMid meet">
<metadata>
Created by potrace 1.16, written by Peter Selinger 2001-2019
</metadata>
<g transform="translate(0.000000,1121.000000) scale(0.100000,-0.100000)"
fill="#000000" stroke="none">
<path d="M12739 11094 c-11 -14 -10 -18 6 -31 20 -14 20 -15 0 -11 -20 3 -20
-3 -23 -1246 -2 -1179 -1 -1250 15 -1269 10 -11 12 -17 6 -13 -16 9 -16 1 -3
-25 13 -23 45 -26 36 -3 -3 9 -8 28 -11 42 -4 20 -2 18 9 -8 14 -34 20 -33 16
4 -1 11 3 15 9 12 8 -5 10 359 8 1251 -2 1015 -4 1257 -15 1255 -7 -1 -15 6
-19 15 -4 10 -11 21 -17 25 -7 5 -7 8 2 8 7 0 15 -7 18 -15 4 -8 10 -12 16 -9
11 7 -10 34 -27 34 -7 0 -19 -7 -26 -16z"/>
<path d="M3120 5921 c0 -894 0 -898 21 -925 l20 -26 250 0 249 0 2 393 3 392
318 3 317 2 0 -395 0 -395 250 0 250 0 0 925 0 925 -250 0 -250 0 0 -395 0
-395 -320 0 -320 0 0 395 0 395 -270 0 -270 0 0 -899z"/>
<path d="M5675 6500 c-71 -10 -175 -50 -226 -88 -140 -104 -191 -149 -236
-204 -45 -56 -54 -74 -77 -168 -50 -205 -56 -377 -20 -560 38 -190 176 -362
384 -478 l65 -36 180 0 c170 0 184 1 262 27 45 15 103 43 128 63 l46 34 15
-37 c37 -93 7 -83 244 -83 l210 0 0 745 0 745 -95 0 -95 0 -45 -57 c-25 -32
-59 -83 -76 -113 -18 -30 -33 -57 -35 -59 -2 -2 -36 27 -76 64 -151 140 -237
184 -400 205 -40 5 -77 9 -83 8 -5 0 -37 -4 -70 -8z m365 -271 c55 -29 66 -40
87 -85 50 -109 63 -192 63 -399 0 -290 -22 -369 -132 -479 -63 -63 -63 -63
-133 -70 -148 -14 -240 20 -300 109 -69 103 -78 143 -83 365 -5 267 11 343
100 458 44 57 109 107 168 129 60 23 157 11 230 -28z"/>
<path d="M7723 6496 c-93 -22 -170 -68 -287 -172 -58 -52 -109 -94 -113 -94
-5 0 -26 30 -48 66 -21 37 -56 88 -77 115 l-38 49 -95 0 -95 0 0 -1075 0
-1075 218 0 218 0 16 28 c17 28 29 170 44 537 3 88 8 163 11 167 2 4 25 -3 51
-16 101 -51 147 -58 360 -54 193 3 198 4 255 32 40 19 93 62 167 135 119 116
155 175 201 332 29 102 38 337 16 462 -45 258 -257 485 -516 552 -90 23 -213
28 -288 11z m142 -241 c33 -9 71 -24 85 -34 32 -24 95 -140 115 -216 25 -89
32 -426 12 -520 -33 -154 -85 -242 -165 -281 -51 -25 -232 -26 -278 -2 -41 22
-78 73 -119 162 -57 122 -76 206 -82 356 -13 337 43 464 236 535 49 18 125 18
196 0z"/>
<path d="M9511 6490 c-97 -26 -141 -53 -269 -166 -59 -51 -110 -94 -114 -94
-5 0 -42 52 -85 115 -52 79 -81 114 -91 110 -8 -3 -45 -10 -82 -16 -37 -7 -74
-15 -82 -20 -11 -7 -13 -185 -13 -1038 l0 -1030 23 -23 c22 -22 28 -23 211
-23 170 0 191 2 209 19 12 10 23 30 26 45 3 14 13 181 22 371 9 190 17 346 18
347 1 1 22 -14 46 -34 25 -20 70 -47 100 -62 53 -25 61 -26 241 -26 l185 1 68
33 c37 18 94 55 126 82 77 64 186 198 221 274 64 135 89 316 69 495 -19 175
-40 236 -125 355 -112 158 -283 263 -479 295 -87 14 -141 12 -225 -10z m221
-262 c72 -39 94 -74 131 -208 19 -67 21 -99 19 -303 -1 -249 -12 -320 -61
-411 -22 -42 -35 -54 -91 -80 -60 -29 -73 -31 -172 -31 l-107 0 -36 35 c-50
48 -118 154 -142 220 -62 169 -53 462 19 604 36 72 87 133 138 166 67 43 94
50 172 46 53 -3 79 -10 130 -38z"/>
<path d="M10432 6393 c4 -56 14 -86 57 -170 28 -57 84 -185 125 -285 97 -240
179 -424 264 -594 93 -186 116 -258 117 -360 l0 -81 -76 -149 c-77 -149 -124
-271 -131 -335 l-3 -34 75 -17 c119 -26 108 -31 180 89 126 213 461 919 615
1297 84 207 255 678 255 703 0 2 -68 3 -152 3 -141 0 -153 -2 -174 -21 -16
-15 -52 -112 -125 -333 -99 -304 -146 -422 -192 -479 l-22 -29 -54 134 c-64
158 -164 378 -264 578 l-72 145 -214 3 -214 2 5 -67z"/>
<path d="M1178 5484 c-12 -4 -18 -23 -23 -77 -23 -240 -78 -414 -215 -679 -56
-109 -59 -113 -93 -116 -33 -3 -36 -6 -39 -40 -2 -24 -8 -38 -18 -39 -73 -9
-101 -21 -194 -83 l-104 -70 18 -71 c10 -39 20 -73 23 -75 2 -3 64 -13 137
-24 293 -44 419 -81 560 -164 154 -91 255 -200 381 -413 l19 -33 52 21 c29 12
72 28 96 37 l42 16 0 106 c0 164 12 219 80 359 33 68 84 157 112 198 72 103
197 218 297 271 45 24 95 55 112 69 30 25 30 26 27 117 l-3 91 -65 7 c-350 40
-480 67 -603 126 -165 80 -267 179 -361 350 -62 113 -62 113 -147 117 -40 2
-81 2 -91 -1z m253 -430 c60 -64 135 -112 281 -184 79 -38 148 -74 155 -80 7
-5 18 -10 24 -10 13 0 147 -66 162 -80 4 -4 -21 -42 -56 -86 -139 -173 -255
-358 -323 -517 -23 -54 -44 -101 -48 -104 -3 -4 -23 9 -44 28 -54 52 -107 91
-197 145 -43 26 -92 63 -108 81 -37 42 -105 73 -254 114 -68 19 -123 38 -123
42 0 5 20 32 44 60 79 94 172 243 270 436 l97 191 42 0 c36 0 48 -6 78 -36z"/>
<path d="M2972 4943 c-48 -17 -44 -5 -66 -191 -21 -173 -58 -257 -175 -400
-45 -55 -172 -158 -228 -185 -24 -12 -43 -28 -43 -36 0 -9 7 -52 16 -97 l16
-80 112 -18 c139 -22 248 -56 351 -109 102 -52 244 -190 294 -285 21 -41 38
-62 46 -58 8 3 42 10 77 16 100 18 93 9 93 107 0 88 1 89 84 288 115 274 139
323 167 342 13 8 64 26 112 40 48 13 92 26 98 28 8 2 7 28 -6 90 -10 47 -20
89 -23 92 -4 3 -50 12 -104 20 -144 21 -235 48 -353 105 -101 50 -110 57 -250
200 -80 81 -152 148 -160 147 -8 0 -34 -7 -58 -16z m180 -384 c65 -22 438
-206 438 -216 0 -3 -18 -34 -39 -68 -22 -34 -82 -148 -135 -253 -53 -106 -99
-192 -104 -192 -4 0 -34 19 -67 41 -33 22 -145 83 -250 136 -104 52 -192 97
-194 99 -8 7 269 474 282 474 4 0 35 -9 69 -21z"/>
<path d="M5533 4623 c-20 -31 -20 33 -15 -1325 l2 -798 229 0 229 0 6 183 c17
525 29 1166 23 1267 -13 255 -89 461 -214 581 -73 70 -98 85 -170 104 -73 19
-69 20 -90 -12z"/>
<path d="M4330 4370 c-41 -5 -95 -14 -118 -20 -59 -14 -204 -88 -283 -144
-164 -114 -356 -368 -388 -511 -44 -195 -32 -464 29 -639 22 -66 100 -185 179
-275 109 -125 271 -235 421 -284 224 -74 553 -58 738 37 124 64 276 217 328
331 46 101 49 96 -68 134 -57 19 -108 36 -114 38 -6 2 -19 -15 -29 -38 -31
-68 -159 -190 -240 -229 -63 -31 -80 -35 -175 -38 -124 -5 -183 9 -280 66 -71
41 -121 100 -170 199 -114 231 -102 618 26 850 45 81 107 159 142 177 95 49
234 71 360 56 134 -15 198 -66 306 -242 27 -43 51 -78 55 -78 3 0 54 16 113
36 l108 36 0 61 c0 59 -3 66 -50 129 -164 218 -404 338 -700 351 -63 3 -149 2
-190 -3z"/>
<path d="M6846 3995 c-59 -7 -111 -17 -115 -22 -3 -6 -22 -15 -41 -22 -20 -6
-71 -32 -115 -58 -154 -89 -297 -267 -337 -416 -41 -158 -42 -360 0 -494 40
-127 219 -346 345 -422 139 -82 294 -117 477 -107 178 10 293 50 411 144 94
76 149 147 177 232 l20 58 -57 16 c-32 9 -86 16 -121 16 l-64 0 -90 -93 c-50
-51 -100 -96 -110 -100 -11 -4 -78 -8 -149 -8 -149 0 -163 6 -244 95 -43 48
-109 177 -96 189 2 3 104 3 226 0 307 -7 373 1 503 66 152 76 198 133 230 291
25 126 6 315 -39 383 -64 96 -203 206 -294 232 -51 15 -289 36 -373 33 -19 0
-84 -6 -144 -13z m275 -234 c79 -25 138 -65 170 -118 22 -35 24 -48 22 -148
-1 -60 -8 -134 -15 -164 -13 -53 -14 -54 -68 -73 -137 -47 -219 -60 -397 -62
-94 0 -174 2 -178 6 -11 11 32 239 60 318 15 41 43 103 63 138 30 52 48 70 97
98 55 32 65 35 120 30 33 -3 90 -14 126 -25z"/>
<path d="M10550 3994 c-123 -24 -266 -104 -363 -201 -39 -40 -75 -73 -79 -73
-3 0 -39 57 -79 128 -40 70 -74 129 -76 132 -2 2 -37 5 -78 7 -117 4 -117 4
-123 -203 -2 -93 -1 -420 3 -726 l7 -558 228 0 228 0 6 68 c3 37 8 182 11 322
9 375 21 522 54 653 41 160 44 165 86 171 19 4 50 8 68 11 62 10 182 7 207 -5
14 -6 38 -29 53 -50 24 -34 32 -66 58 -222 28 -164 30 -199 26 -338 -4 -127
-10 -178 -35 -285 -89 -374 -112 -475 -118 -513 l-7 -42 120 0 119 0 41 43
c84 87 180 261 261 474 113 293 127 576 45 863 -35 122 -144 248 -266 308 -65
32 -71 33 -219 37 -84 2 -164 2 -178 -1z"/>
<path d="M8435 3979 c-186 -31 -342 -138 -458 -314 -140 -213 -154 -553 -31
-796 79 -158 156 -248 279 -324 75 -47 138 -65 286 -80 116 -12 285 24 366 79
21 14 43 26 48 26 6 0 19 -16 28 -35 l17 -35 235 0 235 0 -2 743 -3 742 -95 0
-94 0 -79 -138 -79 -137 -35 47 c-55 74 -93 112 -153 153 -113 77 -124 80
-277 79 -76 -1 -160 -5 -188 -10z m360 -228 c118 -52 169 -147 196 -361 20
-163 -15 -428 -68 -519 -65 -112 -179 -191 -276 -191 -143 0 -258 125 -303
329 -14 60 -15 109 -11 275 6 216 14 267 57 362 23 51 36 67 74 89 26 15 70
31 99 35 73 12 183 3 232 -19z"/>
<path d="M2131 3688 c-34 -88 -120 -286 -156 -358 -49 -98 -96 -149 -172 -185
l-53 -25 0 -94 0 -94 98 -22 c186 -42 375 -91 402 -105 45 -23 76 -69 101
-150 l24 -77 43 6 c92 12 128 50 163 171 61 214 123 320 233 402 61 46 64 50
69 98 3 28 3 71 0 96 l-5 46 -67 7 c-111 12 -213 36 -284 68 -56 26 -76 43
-124 102 -111 139 -107 136 -190 136 -67 0 -74 -2 -82 -22z m282 -364 c83 -42
153 -78 155 -79 2 -2 -33 -75 -77 -164 l-81 -161 -41 0 c-34 0 -66 14 -171 76
-70 42 -131 81 -134 86 -5 8 182 318 192 318 2 0 73 -34 157 -76z"/>
</g>
</svg>
